<?xml version="1.0" encoding="UTF-8" standalone="no"?>
<svg width="120px" height="120px" viewBox="0 0 120 120" version="1.1" xmlns="http://www.w3.org/2000/svg" xmlns:xlink="http://www.w3.org/1999/xlink" xmlns:sketch="http://www.bohemiancoding.com/sketch/ns">
    <!-- Generator: Sketch 3.1.1 (8761) - http://www.bohemiancoding.com/sketch -->
    <title>layout-join-email</title>
    <desc>Created with Sketch.</desc>
    <defs></defs>
    <g id="UI" stroke="none" stroke-width="1" fill="none" fill-rule="evenodd" sketch:type="MSPage">
        <g id="WEB" sketch:type="MSArtboardGroup" transform="translate(-387.000000, -772.000000)" fill="#53DA3F">
            <g id="layout-join-email" sketch:type="MSLayerGroup" transform="translate(387.000000, 772.000000)">
                <path d="M60,120 C93.137085,120 120,93.137085 120,60 C120,26.862915 93.137085,0 60,0 C26.862915,0 0,26.862915 0,60 C0,93.137085 26.862915,120 60,120 Z M60,115 C90.3756612,115 115,90.3756612 115,60 C115,29.6243388 90.3756612,5 60,5 C29.6243388,5 5,29.6243388 5,60 C5,90.3756612 29.6243388,115 60,115 Z" id="Icon" sketch:type="MSShapeGroup"></path>
                <path d="M69.6833333,60.9333333 L87.4333333,76.3166667 L87.4333333,44.3666667 L69.6833333,60.9333333 Z M50.75,59.75 L33,44.3666667 L33,76.3166667 L50.75,59.75 Z M82.7,77.5 L37.7333333,77.5 L53.1166667,62.1166667 L60.2166667,69.2166667 L67.3166667,62.6974055 L82.7,77.5 Z M85.0666667,42 L35.3666667,42 L60.2166667,64.4833333 L85.0666667,42 Z" id="Icon-2" sketch:type="MSShapeGroup"></path>
            </g>
        </g>
    </g>
</svg>